<svg width="49" height="30" viewBox="0 0 49 30" fill="none" xmlns="http://www.w3.org/2000/svg">
<path d="M24.2836 5.02686C19.8737 5.02686 18.584 5.03115 18.3333 5.05079C17.4283 5.12184 16.8652 5.25642 16.2516 5.5449C15.7788 5.76663 15.406 6.02366 15.038 6.38396C14.3677 7.04103 13.9616 7.84939 13.8145 8.81029C13.743 9.27678 13.7222 9.37191 13.718 11.7547C13.7164 12.5489 13.718 13.5942 13.718 14.9963C13.718 19.1578 13.7229 20.3747 13.744 20.611C13.8171 21.4427 13.9552 21.9659 14.2477 22.5383C14.8066 23.6339 15.8741 24.4564 17.1316 24.7633C17.567 24.8692 18.048 24.9275 18.6654 24.9551C18.927 24.9659 21.5932 24.9735 24.261 24.9735C26.9289 24.9735 29.5967 24.9705 29.8518 24.9582C30.5667 24.9264 30.9818 24.8738 31.4408 24.7618C32.0644 24.6107 32.6455 24.333 33.1436 23.9479C33.6417 23.5628 34.0448 23.0796 34.3247 22.5322C34.6115 21.9736 34.7569 21.4304 34.8227 20.6421C34.837 20.4703 34.843 17.7301 34.843 14.9937C34.843 12.2568 34.8365 9.52168 34.8222 9.34982C34.7556 8.54881 34.6102 8.01021 34.3142 7.44091C34.0713 6.97489 33.8016 6.62687 33.41 6.27102C32.7114 5.64065 31.8567 5.25703 30.8382 5.11831C30.3448 5.05095 30.2465 5.031 27.7216 5.02686H24.2836Z" fill="url(#paint0_radial_489_1578)"/>
<path d="M24.2836 5.02686C19.8737 5.02686 18.584 5.03115 18.3333 5.05079C17.4283 5.12184 16.8652 5.25642 16.2516 5.5449C15.7788 5.76663 15.406 6.02366 15.038 6.38396C14.3677 7.04103 13.9616 7.84939 13.8145 8.81029C13.743 9.27678 13.7222 9.37191 13.718 11.7547C13.7164 12.5489 13.718 13.5942 13.718 14.9963C13.718 19.1578 13.7229 20.3747 13.744 20.611C13.8171 21.4427 13.9552 21.9659 14.2477 22.5383C14.8066 23.6339 15.8741 24.4564 17.1316 24.7633C17.567 24.8692 18.048 24.9275 18.6654 24.9551C18.927 24.9659 21.5932 24.9735 24.261 24.9735C26.9289 24.9735 29.5967 24.9705 29.8518 24.9582C30.5667 24.9264 30.9818 24.8738 31.4408 24.7618C32.0644 24.6107 32.6455 24.333 33.1436 23.9479C33.6417 23.5628 34.0448 23.0796 34.3247 22.5322C34.6115 21.9736 34.7569 21.4304 34.8227 20.6421C34.837 20.4703 34.843 17.7301 34.843 14.9937C34.843 12.2568 34.8365 9.52168 34.8222 9.34982C34.7556 8.54881 34.6102 8.01021 34.3142 7.44091C34.0713 6.97489 33.8016 6.62687 33.41 6.27102C32.7114 5.64065 31.8567 5.25703 30.8382 5.11831C30.3448 5.05095 30.2465 5.031 27.7216 5.02686H24.2836Z" fill="url(#paint1_radial_489_1578)"/>
<path d="M24.2788 7.63525C22.1608 7.63525 21.895 7.644 21.0631 7.67975C20.2328 7.71566 19.6661 7.8398 19.1702 8.02195C18.6573 8.21007 18.2222 8.46173 17.7887 8.87128C17.3549 9.28069 17.0884 9.69162 16.8886 10.1759C16.6953 10.6444 16.5637 11.1798 16.5263 11.9636C16.4892 12.7492 16.4795 13.0004 16.4795 15.0008C16.4795 17.0012 16.4889 17.2514 16.5266 18.0371C16.5648 18.8212 16.6962 19.3564 16.8889 19.8248C17.0883 20.3092 17.3547 20.7201 17.7884 21.1295C18.2217 21.5393 18.6568 21.7915 19.1694 21.9797C19.6656 22.1618 20.2325 22.2859 21.0626 22.3218C21.8945 22.3576 22.1601 22.3663 24.278 22.3663C26.3962 22.3663 26.6612 22.3576 27.493 22.3218C28.3233 22.2859 28.8907 22.1618 29.3869 21.9797C29.8996 21.7915 30.3341 21.5393 30.7674 21.1295C31.2012 20.7201 31.4677 20.3092 31.6675 19.8249C31.8592 19.3564 31.9908 18.8211 32.0298 18.0372C32.0672 17.2516 32.077 17.0012 32.077 15.0008C32.077 13.0004 32.0672 12.7494 32.0298 11.9637C31.9908 11.1796 31.8592 10.6444 31.6675 10.1761C31.4677 9.69162 31.2012 9.28069 30.7674 8.87128C30.3336 8.46158 29.8998 8.20992 29.3864 8.02195C28.8892 7.8398 28.3222 7.71566 27.4919 7.67975C26.66 7.644 26.3952 7.63525 24.2765 7.63525H24.2788ZM23.5792 8.96259C23.7868 8.96228 24.0185 8.96259 24.2788 8.96259C26.3611 8.96259 26.6079 8.96965 27.4302 9.00494C28.1905 9.03778 28.6032 9.15777 28.8781 9.25859C29.2421 9.39209 29.5016 9.55168 29.7744 9.80947C30.0473 10.0673 30.2163 10.3128 30.358 10.6565C30.4647 10.9158 30.5919 11.3056 30.6265 12.0237C30.6639 12.8002 30.672 13.0334 30.672 14.9991C30.672 16.9648 30.6639 17.198 30.6265 17.9745C30.5918 18.6926 30.4647 19.0824 30.358 19.3417C30.2166 19.6854 30.0473 19.9302 29.7744 20.1878C29.5014 20.4456 29.2423 20.6052 28.8781 20.7387C28.6036 20.84 28.1905 20.9597 27.4302 20.9925C26.608 21.0278 26.3611 21.0355 24.2788 21.0355C22.1963 21.0355 21.9495 21.0278 21.1274 20.9925C20.367 20.9594 19.9544 20.8394 19.6793 20.7386C19.3153 20.6051 19.0554 20.4455 18.7824 20.1877C18.5095 19.9299 18.3405 19.685 18.1988 19.3411C18.0921 19.0818 17.9648 18.692 17.9302 17.9739C17.8929 17.1974 17.8854 16.9642 17.8854 14.9973C17.8854 13.0304 17.8929 12.7983 17.9302 12.0219C17.965 11.3038 18.0921 10.914 18.1988 10.6544C18.3402 10.3106 18.5095 10.0651 18.7824 9.80732C19.0554 9.54953 19.3153 9.38994 19.6793 9.25613C19.9542 9.15486 20.367 9.03517 21.1274 9.00218C21.8469 8.97149 22.1257 8.96228 23.5792 8.96075V8.96259ZM28.4417 10.1856C28.2566 10.1856 28.0757 10.2374 27.9218 10.3346C27.7679 10.4317 27.6479 10.5697 27.5771 10.7313C27.5063 10.8928 27.4877 11.0705 27.5239 11.242C27.56 11.4134 27.6492 11.5709 27.7801 11.6945C27.911 11.8181 28.0778 11.9023 28.2594 11.9364C28.4409 11.9704 28.6291 11.9529 28.8001 11.8859C28.9711 11.819 29.1172 11.7057 29.22 11.5603C29.3228 11.4149 29.3777 11.244 29.3776 11.0691C29.3776 10.5812 28.9584 10.1853 28.4417 10.1853V10.1856ZM24.2788 11.2183C22.067 11.2183 20.2738 12.9119 20.2738 15.0008C20.2738 17.0897 22.067 18.7825 24.2788 18.7825C26.4906 18.7825 28.2833 17.0897 28.2833 15.0008C28.2833 12.9119 26.4906 11.2183 24.2788 11.2183ZM24.2788 12.5456C25.7144 12.5456 26.8784 13.6448 26.8784 15.0008C26.8784 16.3567 25.7144 17.456 24.2788 17.456C22.843 17.456 21.6792 16.3567 21.6792 15.0008C21.6792 13.6448 22.843 12.5456 24.2788 12.5456Z" fill="white"/>
<defs>
<radialGradient id="paint0_radial_489_1578" cx="0" cy="0" r="1" gradientUnits="userSpaceOnUse" gradientTransform="translate(19.3288 26.5098) rotate(-90) scale(19.7686 19.4732)">
<stop stop-color="#FFDD55"/>
<stop offset="0.1" stop-color="#FFDD55"/>
<stop offset="0.5" stop-color="#FF543E"/>
<stop offset="1" stop-color="#C837AB"/>
</radialGradient>
<radialGradient id="paint1_radial_489_1578" cx="0" cy="0" r="1" gradientUnits="userSpaceOnUse" gradientTransform="translate(10.1786 6.46378) rotate(78.0303) scale(8.85735 38.4881)">
<stop stop-color="#3771C8"/>
<stop offset="0.128" stop-color="#3771C8"/>
<stop offset="1" stop-color="#6600FF" stop-opacity="0"/>
</radialGradient>
</defs>
</svg>
