<svg width="129" height="41" viewBox="0 0 129 41" fill="none" xmlns="http://www.w3.org/2000/svg">
<path d="M2.788 32V9.56H7.684L18.938 27.07H19.244L19.006 9.56H22.61V32H18.156L6.46 13.946H6.154L6.392 32H2.788ZM32.0312 32V24.826L24.0412 9.56H28.3932L33.7992 21.324H33.9692L39.3752 9.56H43.7272L35.7372 24.792V32H32.0312ZM45.1419 32V9.56H48.8479V32H45.1419ZM47.3179 32V28.872H61.3939V32H47.3179ZM47.3179 22.038V19.148H59.7619V22.038H47.3179ZM47.3179 12.654V9.56H61.3599V12.654H47.3179ZM73.181 32.442C71.889 32.442 70.733 32.306 69.713 32.034C68.693 31.7847 67.7977 31.3993 67.027 30.878C66.2564 30.3567 65.6104 29.7333 65.089 29.008C64.5904 28.26 64.205 27.4213 63.933 26.492C63.6837 25.54 63.559 24.4973 63.559 23.364V9.56H67.299V23.228C67.299 24.5427 67.5144 25.6307 67.945 26.492C68.3984 27.3533 69.0557 28.0107 69.917 28.464C70.7784 28.8947 71.855 29.11 73.147 29.11C74.4844 29.11 75.5837 28.8947 76.445 28.464C77.3064 28.0333 77.9524 27.3873 78.383 26.526C78.8137 25.642 79.029 24.5427 79.029 23.228V9.56H82.735V23.364C82.735 26.2653 81.919 28.5093 80.287 30.096C78.6777 31.66 76.309 32.442 73.181 32.442ZM94.5585 32.442C93.0852 32.442 91.7705 32.2947 90.6145 32C89.4812 31.6827 88.5178 31.2293 87.7245 30.64C86.9538 30.028 86.3645 29.28 85.9565 28.396C85.5712 27.4893 85.3898 26.4467 85.4125 25.268L88.7105 24.384C88.6652 25.5173 88.8805 26.458 89.3565 27.206C89.8325 27.954 90.5352 28.5207 91.4645 28.906C92.4165 29.2687 93.5045 29.45 94.7285 29.45C95.9298 29.45 96.9385 29.3027 97.7545 29.008C98.5705 28.7133 99.1825 28.3167 99.5905 27.818C100.021 27.2967 100.237 26.7073 100.237 26.05C100.237 25.302 99.9758 24.7127 99.4545 24.282C98.9558 23.8287 98.2872 23.4773 97.4485 23.228C96.6098 22.956 95.6692 22.7067 94.6265 22.48C93.5612 22.2533 92.5072 21.9927 91.4645 21.698C90.4218 21.4033 89.4698 21.018 88.6085 20.542C87.7698 20.0433 87.0898 19.4087 86.5685 18.638C86.0698 17.8673 85.8205 16.8927 85.8205 15.714C85.8205 14.354 86.1605 13.1867 86.8405 12.212C87.5205 11.2373 88.4838 10.478 89.7305 9.934C90.9998 9.39 92.4958 9.118 94.2185 9.118C95.9412 9.118 97.4485 9.39 98.7405 9.934C100.055 10.4553 101.087 11.226 101.835 12.246C102.605 13.2433 103.002 14.456 103.025 15.884L99.6245 16.768C99.6245 15.9973 99.4885 15.3173 99.2165 14.728C98.9672 14.1387 98.6045 13.6513 98.1285 13.266C97.6525 12.8807 97.0858 12.5973 96.4285 12.416C95.7712 12.212 95.0232 12.11 94.1845 12.11C93.2098 12.11 92.3598 12.2573 91.6345 12.552C90.9092 12.824 90.3425 13.2093 89.9345 13.708C89.5492 14.184 89.3565 14.7507 89.3565 15.408C89.3565 16.224 89.6398 16.87 90.2065 17.346C90.7958 17.7993 91.5665 18.1733 92.5185 18.468C93.4705 18.74 94.4905 19.0007 95.5785 19.25C96.5532 19.454 97.5165 19.7033 98.4685 19.998C99.4432 20.27 100.327 20.644 101.121 21.12C101.937 21.596 102.583 22.2193 103.059 22.99C103.557 23.7607 103.807 24.7467 103.807 25.948C103.807 27.2627 103.455 28.4073 102.753 29.382C102.073 30.3567 101.053 31.116 99.6925 31.66C98.3325 32.1813 96.6212 32.442 94.5585 32.442ZM106.548 32V9.56H110.322V32H106.548Z" fill="#E5AA70"/>
<path d="M121.32 17.992C119.976 17.992 118.816 17.752 117.84 17.272C116.88 16.792 116.144 16.088 115.632 15.16C115.12 14.232 114.864 13.088 114.864 11.728C114.864 10.368 115.12 9.224 115.632 8.296C116.144 7.368 116.88 6.664 117.84 6.184C118.816 5.704 119.976 5.464 121.32 5.464C122.696 5.464 123.864 5.704 124.824 6.184C125.784 6.664 126.52 7.368 127.032 8.296C127.544 9.224 127.8 10.368 127.8 11.728C127.8 13.088 127.544 14.232 127.032 15.16C126.52 16.088 125.784 16.792 124.824 17.272C123.864 17.752 122.696 17.992 121.32 17.992ZM121.32 16.792C122.456 16.792 123.4 16.608 124.152 16.24C124.92 15.872 125.496 15.312 125.88 14.56C126.28 13.808 126.48 12.864 126.48 11.728C126.48 10.592 126.28 9.648 125.88 8.896C125.496 8.144 124.92 7.584 124.152 7.216C123.4 6.848 122.456 6.664 121.32 6.664C119.656 6.664 118.384 7.08 117.504 7.912C116.624 8.744 116.184 10.016 116.184 11.728C116.184 13.424 116.624 14.696 117.504 15.544C118.384 16.376 119.656 16.792 121.32 16.792ZM118.944 15.328V7.984H121.632C122.368 7.984 122.968 8.168 123.432 8.536C123.896 8.904 124.128 9.448 124.128 10.168C124.128 10.664 123.984 11.088 123.696 11.44C123.408 11.776 122.952 11.968 122.328 12.016V12.184C122.856 12.216 123.232 12.36 123.456 12.616C123.696 12.872 123.88 13.296 124.008 13.888L124.32 15.328H123.072L122.832 14.032C122.768 13.648 122.648 13.32 122.472 13.048C122.296 12.76 121.968 12.616 121.488 12.616H120.12V15.328H118.944ZM120.12 11.656H121.272C121.64 11.656 121.944 11.608 122.184 11.512C122.424 11.416 122.6 11.272 122.712 11.08C122.84 10.888 122.904 10.64 122.904 10.336C122.904 10.016 122.848 9.76 122.736 9.568C122.64 9.36 122.488 9.208 122.28 9.112C122.088 9.016 121.84 8.968 121.536 8.968H120.12V11.656Z" fill="#F4F4F4"/>
</svg>
